<?xml version="1.0" encoding="UTF-8"?>
<!DOCTYPE svg PUBLIC "-//W3C//DTD SVG 1.1//EN" "http://www.w3.org/Graphics/SVG/1.1/DTD/svg11.dtd">
<!-- Creator: CorelDRAW -->
<svg xmlns="http://www.w3.org/2000/svg" xml:space="preserve" width="185.722mm" height="41.1614mm" version="1.1" style="shape-rendering:geometricPrecision; text-rendering:geometricPrecision; image-rendering:optimizeQuality; fill-rule:evenodd; clip-rule:evenodd"
viewBox="0 0 19440.72 4308.63"
 xmlns:xlink="http://www.w3.org/1999/xlink"
 xmlns:xodm="http://www.corel.com/coreldraw/odm/2003">
 <defs>
  <style type="text/css">
   <![CDATA[
    .fil1 {fill:#F1653A}
    .fil0 {fill:#002C69;fill-rule:nonzero}
    .fil2 {fill:#F1653A;fill-rule:nonzero}
   ]]>
  </style>
 </defs>
 <g id="Camada_x0020_1">
  <metadata id="CorelCorpID_0Corel-Layer"/>
  <g id="_2023706840048">
   <path class="fil0" d="M7103.2 2456.1c-171.39,42.04 -346.82,63.04 -526.29,63.04 -179.48,0 -317.7,-25.46 -414.73,-76.39 -97,-50.94 -166.93,-136.24 -209.78,-255.87 -42.84,-119.63 -64.29,-291.83 -64.29,-516.58 0,-321.77 49.73,-542.07 149.15,-660.89 99.44,-118.85 289.02,-178.26 568.75,-178.26 116.41,0 253.85,16.18 412.3,48.53l84.9 16.97 -14.56 434.14c-132.59,-16.18 -255.05,-24.25 -367.44,-24.25 -112.38,0 -184.73,21.43 -217.06,64.27 -32.35,42.84 -48.51,131.37 -48.51,265.56 0,134.2 7.67,227.17 23.05,278.91 15.37,51.75 40.02,86.11 73.99,103.08 33.95,16.97 88.91,25.46 164.92,25.46l378.35 -14.56 7.28 426.86 -0.03 0zm618.46 -780.96c0,137.44 13.34,236.46 40.02,297.09 26.68,60.63 82.46,90.95 167.35,90.95 84.88,0 140.27,-29.91 166.14,-89.75 25.88,-59.81 38.81,-159.65 38.81,-299.52 0,-139.85 -12.52,-239.29 -37.58,-298.3 -25.06,-59.01 -80.43,-88.52 -166.14,-88.52 -85.69,0 -141.87,30.3 -168.55,90.93 -26.68,60.63 -40.02,159.65 -40.02,297.09l-0.03 0.02zm979.83 0c0,295.89 -61.45,510.53 -184.32,643.94 -122.88,133.38 -318.91,200.09 -588.14,200.09 -269.2,0 -465.67,-67.1 -589.34,-201.29 -123.7,-134.2 -185.55,-348.85 -185.55,-643.94 0,-295.07 61.45,-509.3 184.35,-642.68 122.88,-133.41 319.33,-200.11 589.34,-200.11 270.01,0 466.48,66.7 589.34,200.11 122.88,133.38 184.32,348.03 184.32,643.92l0 -0.03zm111.56 812.47l0 -1624.94 552.96 0 373.49 616.02 33.97 0 0 -616.02 562.68 0 0 1624.94 -555.39 0 -368.64 -662.11 -36.4 0 0 662.11 -562.65 0 -0.02 0zm2854.57 -31.51c-171.39,42.04 -346.82,63.04 -526.29,63.04 -179.48,0 -317.7,-25.46 -414.73,-76.39 -97,-50.94 -166.93,-136.24 -209.78,-255.87 -42.84,-119.63 -64.27,-291.83 -64.27,-516.58 0,-321.77 49.73,-542.07 149.15,-660.89 99.44,-118.85 289,-178.26 568.73,-178.26 116.41,0 253.85,16.18 412.32,48.53l84.88 16.97 -14.56 434.14c-132.59,-16.18 -255.05,-24.25 -367.44,-24.25 -112.38,0 -184.73,21.43 -217.06,64.27 -32.35,42.84 -48.53,131.37 -48.53,265.56 0,134.2 7.67,227.17 23.05,278.91 15.37,51.75 40.02,86.11 73.99,103.08 33.97,16.97 88.93,25.46 164.92,25.46l378.35 -14.56 7.28 426.86 -0.01 0zm807.62 -388.05l-138.23 0 0 419.58 -562.68 0 0 -1624.94 683.94 0c250.61,0 430.11,41.64 538.42,124.9 108.34,83.28 162.48,237.69 162.48,463.24 0,225.55 -59.81,386.84 -179.48,483.85l160.07 552.96 -572.37 0 -92.16 -419.58 0 -0.01zm-2.43 -443.83c79.25,0 118.85,-52.96 118.85,-158.87 0,-105.91 -44.45,-158.87 -133.41,-158.87l-123.7 0 0 317.7 138.23 0 0.03 0.03zm797.93 863.41l0 -1624.94 1217.48 0 0 448.68 -654.84 0 0 138.26 509.3 0 0 443.83 -509.3 0 0 145.53 654.84 0 0 448.68 -1217.48 0 0 -0.03zm1280.55 -1166.58l0 -458.39 1212.67 0 0 458.39 -315.3 0 0 1166.57 -562.68 0 0 -1166.57 -334.67 0 -0.02 0zm1309.67 1166.58l0 -1624.94 562.65 0 0 1624.94 -562.65 0zm681.5 -1166.58l0 -458.39 1285.4 0 0 458.39 -526.27 666.96 0 41.22 526.27 0 0 458.39 -1285.4 0 0 -436.55 538.42 -688.78 0 -41.22 -538.42 0 0 -0.01zm1321.8 1166.58l358.95 -1624.94 851.28 0 366.23 1624.94 -567.53 0 -46.07 -186.73 -371.08 0 -38.81 186.73 -552.99 0 0.01 0zm756.69 -1183.55l-92.16 567.53 240.11 0 -87.29 -567.53 -60.63 0 -0.03 0z"/>
   <path class="fil1" d="M3320.76 2720.79c0.12,183.53 0.46,367.04 0.3,550.55 0,17.41 2.34,5.42 0.04,32.65 -24.44,29.4 -30.25,36.14 -58.51,70.67l-66.85 78.87 -648.69 828.33c-24.46,26.89 -46.81,24.48 -59.22,26.66 -242.33,0 -525.37,-0.12 -767.68,0.12 -33.76,0.04 -44.98,-13.89 -43.87,-45.59 1.3,-37.35 0.25,-74.82 0.25,-112.27 0,-563.83 0.58,-1127.69 -1.05,-1691.5 -0.12,-47.81 12.66,-78.8 55.38,-101.48 74.26,-39.37 146.97,-81.64 219.58,-124.06 104.96,-61.3 209.1,-124.02 313.83,-185.74 68.26,-40.25 136.54,-80.52 205.82,-118.96 9.58,-5.33 27.01,-4.54 37.17,0.58 57.66,29.4 114.56,60.33 171.03,92.02 88.01,49.41 175.74,99.14 262.92,149.96 120.49,70.23 240.76,140.89 359.78,213.68 11.62,7.1 18.76,30.02 19.01,45.7 1.7,96.59 0.74,193.18 0.76,289.74l-0.02 0.08zm-1155.33 269.59l237.51 0c35.84,0 64.87,29.07 64.87,64.9l0 241.1c0,35.84 -29.03,64.92 -64.87,64.92l-237.51 0c-35.84,0 -64.9,-29.07 -64.9,-64.92l0 -241.1c0,-35.82 29.03,-64.9 64.9,-64.9zm236.83 -88.36l-237.71 0c-35.84,0 -64.92,-29.07 -64.92,-64.9l0 -238.92c0,-35.82 29.07,-64.9 64.92,-64.9l237.71 0c35.84,0 64.9,29.07 64.9,64.9l0 238.92c0,35.82 -29.03,64.9 -64.9,64.9zm543 -303.84l0 235.56c0,35.82 -29.07,64.87 -64.87,64.87l-239.99 0c-35.82,0 -64.87,-29.05 -64.87,-64.87l0 -235.56c0,-35.84 29.07,-64.87 64.87,-64.87l239.99 0c35.8,0 64.87,29.03 64.87,64.87zm1.36 458.69l0 240.22c0,35.84 -29.07,64.9 -64.87,64.9l-241.43 0c-35.84,0 -64.92,-29.03 -64.92,-64.9l0 -240.22c0,-35.84 29.07,-64.87 64.92,-64.87l241.43 0c35.8,0 64.87,29.03 64.87,64.87z"/>
   <path class="fil2" d="M4164.51 2315.7l-840.71 988.32 868.4 1.6 -80.63 -0.12c45.09,1.79 77.21,33.15 78.8,78.8l0.04 -2.11c-3.17,185.46 -7.81,634.25 -7.81,674.99 0,66.43 1.81,133.11 2.08,199.21 0.32,44.08 6.66,50.1 51.03,50.1 101.09,0 201.94,0.32 303.05,0.32l73.05 0c111.08,0 222.48,-0.32 333.56,-0.32 46.16,0 51.01,-5.4 52.21,-52.79l0 -21.75c0,-613.38 0,-1227.04 -0.3,-1840.75l0 -879.01 -0.21 -40.38c-1.95,-32.02 -15.12,-55.46 -40.97,-69.14l-46.37 -25.99c-108.04,-62.18 -215.51,-125.87 -323.87,-187.75 -92.67,-53.14 -186.85,-103.87 -279.52,-156.98 -50.71,-29.28 -101.13,-58.57 -151.54,-87.84 -78.18,-45.59 -156.08,-91.45 -233.66,-137.35 -46.49,-27.48 -90.56,-58.84 -137.37,-85.69 -76.05,-43.49 -153.91,-83.93 -230.28,-127.1 -70.06,-39.25 -139.16,-80.89 -208.89,-121.05 -83.32,-47.94 -166.93,-95.06 -249.96,-143.7 -92.06,-53.72 -183.23,-109.27 -275.3,-163.32 -9.92,-6.03 -20.19,-11.76 -30.19,-17.78 -0.3,-0.32 -0.9,-0.32 -1.18,-0.61 -0.28,-0.3 -0.63,-0.63 -0.9,-0.63 -47.39,-28.05 -94.78,-55.53 -142.5,-82.38 -16.58,-9.69 -33.51,-19.06 -50.1,-28.1 -41.06,-22.63 -82.42,-54.04 -134.31,-24.14 -103.85,60.38 -207.99,120.12 -312.14,180.19 -116.51,67 -233.66,133.76 -350.16,201.33 -117.41,67.63 -234.21,136.75 -351.67,204.37 -74.86,42.87 -151.54,83 -226.4,126.47 -108.99,63.41 -216.13,129.48 -325.09,192.9 -17.5,10.27 -35.31,20.52 -53.14,30.51 -70.65,40.46 -142.17,79.39 -212.79,119.84 -29.01,16.58 -56.13,37.12 -85.11,53.72 -90.56,51.61 -182,102.06 -272.61,153.39 -73.05,41.64 -144.25,86.92 -219.12,125.25 -18.74,9.37 -31.7,19.64 -39.53,32.6 -8.78,13.59 -12.4,29.56 -12.4,51.01 0.9,292.82 0.9,585.62 0.9,878.46l0 501.67 -0.3 0 0 1383.43c0,54.04 3.62,59.12 48.3,59.12 111.08,0.32 221.88,0.32 332.96,0.32l395.14 0c48.59,0 53.11,-5.12 53.11,-54.94l0 -245.41c-0.28,-674.99 0,-1350.24 -1.18,-2025.5 0,-19.01 1.18,-35.91 4.83,-51.01 2.14,-7.56 4.56,-14.49 7.84,-21.14 9.69,-19.01 26.29,-34.71 53.47,-48.27 86.92,-43.45 167.21,-99.02 251.44,-147.59 68.84,-39.88 139.46,-75.76 208.27,-115.32 108.09,-62.48 214.94,-127.38 322.97,-189.88 69.44,-40.15 140.69,-77.9 211.03,-117.11 118.01,-66.12 236.65,-131.62 354.06,-199.25 46.88,-26.89 211.52,-136.35 245.46,-146.69 15.35,-6.37 29.26,-5.12 44.96,3.89 25.38,13.19 54.35,33.09 80.89,47.71 80.91,45.26 162.69,88.45 242.7,134.94 95.68,55.23 189.26,113.79 284.67,169.65 99.62,57.94 200.43,113.49 300.06,171.15 107.76,62.46 214.62,127.06 322.69,189.26 114.69,66.12 229.71,130.99 345.32,194.98 18.45,10.27 33.51,21.14 45.3,34.12 7.56,8.19 13.59,16.93 18.13,26.87 9.37,18.74 13.87,41.36 13.26,69.44l-4.52 308.8 0.35 -29.49c-0.04,19.85 -7.33,35.59 -17.5,49.69l-0.08 -0.03z"/>
   <path class="fil2" d="M8269.43 3985.85l0 -1027.58 208.54 0 0 1027.58 -208.54 0zm974.88 0l0 -1027.58 355.12 0 181.34 749.53 181.33 -749.53 355.13 0 0 1027.58 -208.55 0 0 -794.86 -22.66 0 -200.98 749.53 -208.54 0 -200.99 -749.53 -22.66 0 0 794.86 -208.54 0zm2053.07 -242.54c29.72,52.88 85.38,79.33 166.98,79.33 81.61,0 137.26,-26.45 166.98,-79.33 29.73,-52.89 44.58,-141.54 44.58,-265.96 0,-124.42 -15.1,-214.84 -45.34,-271.25 -30.22,-56.42 -85.63,-84.63 -166.23,-84.63 -80.59,0 -136,28.21 -166.23,84.63 -30.22,56.41 -45.32,146.83 -45.32,271.25 0,124.42 14.85,213.07 44.57,265.96zm497.17 132.98c-63.98,85.12 -174.04,127.68 -330.19,127.68 -156.15,0 -266.21,-42.56 -330.18,-127.68 -63.97,-85.13 -95.96,-218.37 -95.96,-399.7 0,-181.34 31.99,-316.08 95.96,-404.23 63.97,-88.16 174.04,-132.23 330.18,-132.23 156.16,0 266.21,44.07 330.19,132.23 63.97,88.15 95.96,222.89 95.96,404.23 0,181.33 -31.99,314.56 -95.96,399.7zm-570.46 -1158.3l380.8 -160.18 61.96 181.34 -392.89 119.37 -49.87 -140.54zm1928.4 240.27l219.12 0 -238.76 1027.58 -385.35 0 -238.76 -1027.58 219.11 0 178.32 846.24 68.01 0 178.31 -846.24zm897.82 1027.58l0 -1027.58 664.91 0 0 181.34 -456.37 0 0 240.26 365.7 0 0 178.32 -365.7 0 0 246.31 456.37 0 0 181.34 -664.91 0zm1379.87 0l0 -1027.58 208.54 0 0 1027.58 -208.54 0zm1290.71 -864.38c-109.82,0 -164.72,36.27 -164.72,108.81 0,32.23 13.6,56.91 40.8,74.04 27.19,17.13 90.92,41.81 191.16,74.05 100.24,32.24 170.51,68.76 210.81,109.55 40.29,40.8 60.44,103.51 60.44,188.15 0,107.79 -32.74,189.39 -98.23,244.8 -65.48,55.42 -151.11,83.11 -256.89,83.11 -78.58,0 -174.79,-12.09 -288.64,-36.26l-54.4 -10.58 21.16 -161.69c135,18.14 238.26,27.21 309.79,27.21 106.78,0 160.18,-44.33 160.18,-132.98 0,-32.24 -12.34,-57.43 -37.02,-75.56 -24.68,-18.14 -73.79,-37.78 -147.33,-58.93 -116.86,-33.25 -199.22,-72.79 -247.07,-118.63 -47.86,-45.84 -71.79,-109.55 -71.79,-191.16 0,-102.76 31.24,-179.32 93.7,-229.69 62.46,-50.37 148.1,-75.56 256.9,-75.56 74.55,0 169.24,10.07 284.09,30.22l54.4 10.58 -16.62 164.71c-142.05,-16.12 -242.28,-24.18 -300.71,-24.18z"/>
  </g>
 </g>
</svg>
