<?xml version="1.0" encoding="UTF-8"?>
<!DOCTYPE svg PUBLIC "-//W3C//DTD SVG 1.1//EN" "http://www.w3.org/Graphics/SVG/1.1/DTD/svg11.dtd">
<!-- Creator: CorelDRAW -->
<svg xmlns="http://www.w3.org/2000/svg" xml:space="preserve" width="4.376mm" height="3.7728mm" version="1.1" style="shape-rendering:geometricPrecision; text-rendering:geometricPrecision; image-rendering:optimizeQuality; fill-rule:evenodd; clip-rule:evenodd"
viewBox="0 0 423.79 365.37"
 xmlns:xlink="http://www.w3.org/1999/xlink"
 xmlns:xodm="http://www.corel.com/coreldraw/odm/2003">
 <defs>
  <style type="text/css">
   <![CDATA[
    .fil0 {fill:#F1653A}
    .fil1 {fill:#F1653A;fill-rule:nonzero}
   ]]>
  </style>
 </defs>
 <g id="Camada_x0020_1">
  <metadata id="CorelCorpID_0Corel-Layer"/>
  <g id="_2059050989952">
   <path class="fil0" d="M281.59 230.72c0.02,15.56 0.04,31.13 0.03,46.69 0,1.47 0.19,0.46 0,2.77 -2.07,2.49 -2.57,3.06 -4.96,5.98l-5.67 6.69 -55.02 70.24c-2.07,2.29 -3.96,2.07 -5.02,2.27 -20.55,0 -44.55,-0.01 -65.1,0.01 -2.87,0 -3.82,-1.18 -3.72,-3.86 0.11,-3.18 0.02,-6.34 0.02,-9.52 0,-47.81 0.05,-95.63 -0.09,-143.44 -0.01,-4.06 1.07,-6.68 4.7,-8.61 6.29,-3.34 12.46,-6.92 18.62,-10.52 8.9,-5.2 17.73,-10.52 26.61,-15.76 5.78,-3.41 11.57,-6.83 17.45,-10.08 0.8,-0.46 2.29,-0.39 3.15,0.05 4.89,2.49 9.71,5.11 14.51,7.81 7.46,4.18 14.9,8.41 22.29,12.72 10.22,5.96 20.41,11.95 30.51,18.12 0.99,0.6 1.59,2.55 1.62,3.87 0.14,8.19 0.06,16.38 0.06,24.57zm-97.97 22.86l20.14 0c3.04,0 5.5,2.46 5.5,5.5l0 20.44c0,3.04 -2.46,5.5 -5.5,5.5l-20.14 0c-3.04,0 -5.5,-2.46 -5.5,-5.5l0 -20.44c0,-3.04 2.46,-5.5 5.5,-5.5zm20.09 -7.5l-20.16 0c-3.04,0 -5.5,-2.47 -5.5,-5.5l0 -20.26c0,-3.04 2.46,-5.5 5.5,-5.5l20.16 0c3.04,0 5.5,2.46 5.5,5.5l0 20.26c0,3.03 -2.46,5.5 -5.5,5.5zm46.04 -25.77l0 19.98c0,3.04 -2.46,5.5 -5.5,5.5l-20.35 0c-3.04,0 -5.5,-2.46 -5.5,-5.5l0 -19.98c0,-3.03 2.46,-5.5 5.5,-5.5l20.35 0c3.04,0 5.5,2.47 5.5,5.5zm0.12 38.9l0 20.37c0,3.04 -2.46,5.5 -5.5,5.5l-20.47 0c-3.04,0 -5.5,-2.46 -5.5,-5.5l0 -20.37c0,-3.04 2.46,-5.5 5.5,-5.5l20.47 0c3.04,0 5.5,2.46 5.5,5.5z"/>
   <path class="fil1" d="M353.14 196.37l-71.29 83.81 73.64 0.14 -6.84 -0.01c3.82,0.15 6.55,2.81 6.68,6.68l0 -0.18c-0.27,15.73 -0.66,53.79 -0.66,57.24 0,5.63 0.15,11.28 0.17,16.89 0.03,3.74 0.56,4.25 4.33,4.25 8.57,0 17.12,0.02 25.69,0.02l6.2 0c9.42,0 18.87,-0.02 28.29,-0.02 3.91,0 4.32,-0.46 4.43,-4.48l0 -1.84c0,-52.01 0,-104.05 -0.03,-156.09l0 -74.54 -0.02 -3.43c-0.16,-2.71 -1.28,-4.7 -3.47,-5.86l-3.93 -2.21c-9.16,-5.27 -18.27,-10.67 -27.47,-15.92 -7.86,-4.5 -15.84,-8.8 -23.71,-13.31 -4.3,-2.49 -8.57,-4.97 -12.85,-7.45 -6.62,-3.86 -13.23,-7.76 -19.8,-11.65 -3.95,-2.33 -7.68,-4.99 -11.65,-7.26 -6.45,-3.69 -13.05,-7.12 -19.53,-10.78 -5.94,-3.33 -11.8,-6.87 -17.71,-10.27 -7.06,-4.07 -14.16,-8.07 -21.2,-12.18 -7.81,-4.56 -15.53,-9.27 -23.34,-13.86 -0.84,-0.5 -1.71,-0.99 -2.56,-1.5 -0.03,-0.03 -0.08,-0.03 -0.11,-0.06 -0.02,-0.02 -0.05,-0.05 -0.08,-0.05 -4.02,-2.37 -8.04,-4.71 -12.08,-6.98 -1.41,-0.82 -2.85,-1.62 -4.25,-2.38 -3.49,-1.92 -6.99,-4.58 -11.39,-2.05 -8.81,5.12 -17.64,10.19 -26.47,15.28 -9.88,5.68 -19.81,11.34 -29.69,17.07 -9.96,5.73 -19.86,11.6 -29.83,17.34 -6.34,3.63 -12.84,7.03 -19.19,10.72 -9.24,5.37 -18.32,10.98 -27.57,16.36 -1.48,0.87 -2.99,1.74 -4.5,2.59 -5.98,3.43 -12.06,6.73 -18.04,10.16 -2.46,1.41 -4.76,3.16 -7.22,4.56 -7.67,4.38 -15.43,8.65 -23.11,13.01 -6.2,3.53 -12.24,7.37 -18.58,10.61 -1.59,0.79 -2.69,1.67 -3.35,2.77 -0.75,1.15 -1.06,2.51 -1.06,4.33 0.08,24.83 0.08,49.65 0.08,74.48l0 42.54 -0.03 0 0 117.32c0,4.58 0.31,5.02 4.1,5.02 9.42,0.02 18.82,0.02 28.24,0.02l33.51 0c4.12,0 4.5,-0.43 4.5,-4.66l0 -20.8c-0.03,-57.24 0,-114.5 -0.11,-171.76 0,-1.62 0.11,-3.04 0.41,-4.33 0.18,-0.64 0.39,-1.23 0.67,-1.79 0.82,-1.61 2.23,-2.94 4.53,-4.1 7.37,-3.68 14.18,-8.4 21.33,-12.51 5.84,-3.38 11.82,-6.42 17.66,-9.78 9.16,-5.3 18.23,-10.8 27.38,-16.1 5.9,-3.41 11.93,-6.6 17.9,-9.94 10.01,-5.61 20.08,-11.16 30.03,-16.9 3.97,-2.28 17.94,-11.55 20.81,-12.43 1.3,-0.54 2.48,-0.44 3.81,0.33 2.16,1.12 4.61,2.81 6.87,4.05 6.86,3.84 13.79,7.51 20.58,11.45 8.12,4.68 16.05,9.65 24.13,14.38 8.45,4.91 17,9.63 25.45,14.52 9.13,5.3 18.2,10.77 27.36,16.05 9.73,5.61 19.49,11.11 29.29,16.53 1.56,0.87 2.84,1.79 3.84,2.9 0.65,0.7 1.16,1.43 1.54,2.28 0.79,1.59 1.18,3.51 1.12,5.89l-0.38 26.19 0.03 -2.5c-0.01,1.69 -0.62,3.01 -1.49,4.21z"/>
  </g>
 </g>
</svg>
